<svg xmlns="http://www.w3.org/2000/svg" width="814" height="50" viewBox="0 0 814 50" font-family="ui-monospace, 'SF Mono', Menlo, Consolas, 'DejaVu Sans Mono', monospace" font-size="14">
<rect width="814" height="50" rx="8" fill="#16161e"/>
<rect x="16.00" y="10" width="92.40" height="30" fill="rgb(122,162,247)"/>
<rect x="108.40" y="10" width="109.20" height="30" fill="rgb(41,46,66)"/>
<rect x="217.60" y="10" width="92.40" height="30" fill="rgb(59,66,97)"/>
<rect x="310.00" y="10" width="142.80" height="30" fill="rgb(86,95,137)"/>
<rect x="452.80" y="10" width="67.20" height="30" fill="rgb(158,206,106)"/>
<rect x="662.80" y="10" width="67.20" height="30" fill="rgb(65,72,104)"/>
<g transform="translate(23.35 19.75) scale(0.65625)"><path d="M5.1 0.8 V3.2 M8 0.8 V3.2 M10.9 0.8 V3.2 M5.1 12.8 V15.2 M8 12.8 V15.2 M10.9 12.8 V15.2 M0.8 5.1 H3.2 M0.8 8 H3.2 M0.8 10.9 H3.2 M12.8 5.1 H15.2 M12.8 8 H15.2 M12.8 10.9 H15.2" fill="none" stroke="rgb(26,27,38)" stroke-width="1.3" stroke-linecap="round" stroke-linejoin="round"/><path d="M4.6 3.4 h6.8 a1.2 1.2 0 0 1 1.2 1.2 v6.8 a1.2 1.2 0 0 1 -1.2 1.2 H4.6 a1.2 1.2 0 0 1 -1.2 -1.2 V4.6 a1.2 1.2 0 0 1 1.2 -1.2 Z" fill="none" stroke="rgb(26,27,38)" stroke-width="1.6" stroke-linecap="round" stroke-linejoin="round"/><path d="M6.3 6.3 h3.4 v3.4 h-3.4 Z" fill="rgb(26,27,38)"/></g>
<text x="45.40" y="25" fill="rgb(26,27,38)" text-anchor="middle" dominant-baseline="central">F</text>
<text x="53.80" y="25" fill="rgb(26,27,38)" text-anchor="middle" dominant-baseline="central">a</text>
<text x="62.20" y="25" fill="rgb(26,27,38)" text-anchor="middle" dominant-baseline="central">b</text>
<text x="70.60" y="25" fill="rgb(26,27,38)" text-anchor="middle" dominant-baseline="central">l</text>
<text x="79.00" y="25" fill="rgb(26,27,38)" text-anchor="middle" dominant-baseline="central">e</text>
<text x="95.80" y="25" fill="rgb(26,27,38)" text-anchor="middle" dominant-baseline="central">5</text>
<path d="M108.40 10 L117.20 25 L108.40 40 Z" fill="rgb(122,162,247)"/>
<g transform="translate(124.15 19.75) scale(0.65625)"><path d="M1.2 3.6 h4.6 l1.6 2 h7.4 a1 1 0 0 1 1 1 v5.8 a1 1 0 0 1 -1 1 H2.2 a1 1 0 0 1 -1 -1 V4.6 a1 1 0 0 1 1 -1 Z" fill="rgb(125,207,255)"/></g>
<text x="146.20" y="25" fill="rgb(125,207,255)" text-anchor="middle" dominant-baseline="central">a</text>
<text x="154.60" y="25" fill="rgb(125,207,255)" text-anchor="middle" dominant-baseline="central">p</text>
<text x="163.00" y="25" fill="rgb(125,207,255)" text-anchor="middle" dominant-baseline="central">p</text>
<text x="171.40" y="25" fill="rgb(125,207,255)" text-anchor="middle" dominant-baseline="central">s</text>
<text x="179.80" y="25" fill="rgb(125,207,255)" text-anchor="middle" dominant-baseline="central">/</text>
<text x="188.20" y="25" fill="rgb(125,207,255)" text-anchor="middle" dominant-baseline="central">a</text>
<text x="196.60" y="25" fill="rgb(125,207,255)" text-anchor="middle" dominant-baseline="central">p</text>
<text x="205.00" y="25" fill="rgb(125,207,255)" text-anchor="middle" dominant-baseline="central">e</text>
<path d="M217.60 10 L226.40 25 L217.60 40 Z" fill="rgb(41,46,66)"/>
<g transform="translate(233.35 19.75) scale(0.65625)"><path d="M4.2 5.6 V10.4" fill="none" stroke="rgb(158,206,106)" stroke-width="1.7" stroke-linecap="round" stroke-linejoin="round"/><path d="M11.8 7.4 C11.8 9.8 8.4 9.6 5.4 11.1" fill="none" stroke="rgb(158,206,106)" stroke-width="1.7" stroke-linecap="round" stroke-linejoin="round"/><path d="M4.2 5.5 a1.9 1.9 0 1 1 0.001 0 Z M4.2 14.3 a1.9 1.9 0 1 1 0.001 0 Z M11.8 7.3 a1.9 1.9 0 1 1 0.001 0 Z" fill="none" stroke="rgb(158,206,106)" stroke-width="1.5" stroke-linecap="round" stroke-linejoin="round"/></g>
<text x="255.40" y="25" fill="rgb(158,206,106)" text-anchor="middle" dominant-baseline="central">m</text>
<text x="263.80" y="25" fill="rgb(158,206,106)" text-anchor="middle" dominant-baseline="central">a</text>
<text x="272.20" y="25" fill="rgb(158,206,106)" text-anchor="middle" dominant-baseline="central">i</text>
<text x="280.60" y="25" fill="rgb(158,206,106)" text-anchor="middle" dominant-baseline="central">n</text>
<circle cx="297.40" cy="25" r="2.6" fill="rgb(224,175,104)"/>
<path d="M310.00 10 L318.80 25 L310.00 40 Z" fill="rgb(59,66,97)"/>
<text x="331.00" y="25" fill="rgb(26,27,38)" text-anchor="middle" dominant-baseline="central">A</text>
<text x="339.40" y="25" fill="rgb(26,27,38)" text-anchor="middle" dominant-baseline="central">P</text>
<text x="347.80" y="25" fill="rgb(26,27,38)" text-anchor="middle" dominant-baseline="central">E</text>
<text x="364.60" y="25" fill="rgb(26,27,38)" text-anchor="middle" dominant-baseline="central">p</text>
<text x="373.00" y="25" fill="rgb(26,27,38)" text-anchor="middle" dominant-baseline="central">h</text>
<text x="381.40" y="25" fill="rgb(26,27,38)" text-anchor="middle" dominant-baseline="central">a</text>
<text x="389.80" y="25" fill="rgb(26,27,38)" text-anchor="middle" dominant-baseline="central">s</text>
<text x="398.20" y="25" fill="rgb(26,27,38)" text-anchor="middle" dominant-baseline="central">e</text>
<text x="406.60" y="25" fill="rgb(26,27,38)" text-anchor="middle" dominant-baseline="central">/</text>
<text x="415.00" y="25" fill="rgb(26,27,38)" text-anchor="middle" dominant-baseline="central">f</text>
<text x="423.40" y="25" fill="rgb(26,27,38)" text-anchor="middle" dominant-baseline="central">u</text>
<text x="431.80" y="25" fill="rgb(26,27,38)" text-anchor="middle" dominant-baseline="central">l</text>
<text x="440.20" y="25" fill="rgb(26,27,38)" text-anchor="middle" dominant-baseline="central">l</text>
<path d="M452.80 10 L461.60 25 L452.80 40 Z" fill="rgb(86,95,137)"/>
<text x="473.80" y="25" fill="rgb(26,27,38)" text-anchor="middle" dominant-baseline="central">b</text>
<text x="482.20" y="25" fill="rgb(26,27,38)" text-anchor="middle" dominant-baseline="central">u</text>
<text x="490.60" y="25" fill="rgb(26,27,38)" text-anchor="middle" dominant-baseline="central">i</text>
<text x="499.00" y="25" fill="rgb(26,27,38)" text-anchor="middle" dominant-baseline="central">l</text>
<text x="507.40" y="25" fill="rgb(26,27,38)" text-anchor="middle" dominant-baseline="central">d</text>
<path d="M520.00 10 L528.80 25 L520.00 40 Z" fill="rgb(158,206,106)"/>
<g transform="translate(544.15 19.75) scale(0.65625)"><path d="M2 14 l0.7 -3 L10.6 3.1 a1.3 1.3 0 0 1 1.8 0 l1.5 1.5 a1.3 1.3 0 0 1 0 1.8 L6 14.3 l-3 0.7 A0.8 0.8 0 0 1 2 14 Z" fill="rgb(158,206,106)"/></g>
<g transform="translate(560.95 19.75) scale(0.65625)"><path d="M6.5 1.6 h3 M6.9 1.8 V6.2 L2.8 12.9 a1.6 1.6 0 0 0 1.4 2.4 h7.6 a1.6 1.6 0 0 0 1.4 -2.4 L9.1 6.2 V1.8" fill="none" stroke="rgb(158,206,106)" stroke-width="1.6" stroke-linecap="round" stroke-linejoin="round"/></g>
<g transform="translate(577.75 19.75) scale(0.65625)" opacity="0.55"><path d="M14.9 4.3 a4.2 4.2 0 0 1 -5.6 5 L4.9 13.7 a2 2 0 0 1 -2.8 -2.8 L6.5 6.5 a4.2 4.2 0 0 1 5.2 -5.4 L9.2 3.6 l2.9 2.9 2.5 -2.5 A4.2 4.2 0 0 1 14.9 4.3 Z" fill="rgb(125,207,255)"/></g>
<g transform="translate(594.55 19.75) scale(0.65625)"><path d="M1.4 8 C3 4.8 5.4 3.2 8 3.2 s5 1.6 6.6 4.8 C13 11.2 10.6 12.8 8 12.8 S3 11.2 1.4 8 Z" fill="none" stroke="rgb(65,72,104)" stroke-width="1.5" stroke-linecap="round" stroke-linejoin="round"/><path d="M8 8 m-2 0 a2 2 0 1 0 4 0 a2 2 0 1 0 -4 0" fill="rgb(65,72,104)"/></g>
<g transform="translate(611.35 19.75) scale(0.65625)"><path d="M8 1.2 L14.2 3.4 V7.8 c0 3.8 -2.7 6.2 -6.2 7.4 C4.5 14 1.8 11.6 1.8 7.8 V3.4 Z" fill="rgb(65,72,104)"/></g>
<g transform="translate(628.15 19.75) scale(0.65625)"><path d="M8 0.8 C9.9 2.5 10.5 5.2 10.5 7.6 V9.2 L12.6 11.9 L9.8 11.2 A2.6 2.6 0 0 1 6.2 11.2 L3.4 11.9 L5.5 9.2 V7.6 C5.5 5.2 6.1 2.5 8 0.8 Z" fill="rgb(65,72,104)"/><path d="M8 4.6 a1.35 1.35 0 1 1 -0.001 0 Z" fill="#16161e"/><path d="M8 12.6 V15" fill="none" stroke="rgb(65,72,104)" stroke-width="1.5" stroke-linecap="round" stroke-linejoin="round"/></g>
<text x="650.20" y="25" fill="#c0caf5" opacity="0.55" text-anchor="middle" dominant-baseline="central">·</text>
<rect x="662.80" y="10" width="8.40" height="30" fill="rgb(192,202,245)"/>
<rect x="671.20" y="10" width="8.40" height="30" fill="rgb(192,202,245)"/>
<rect x="679.60" y="10" width="8.40" height="30" fill="rgb(192,202,245)"/>
<rect x="688.00" y="10" width="1.05" height="30" fill="rgb(192,202,245)"/>
<text x="742.60" y="25" fill="#c0caf5" opacity="0.55" text-anchor="middle" dominant-baseline="central">·</text>
<g transform="translate(754.15 19.75) scale(0.65625)"><path d="M2.1 12.2 A6.4 6.4 0 1 1 13.9 12.2" fill="none" stroke="rgb(158,206,106)" stroke-width="1.7" stroke-linecap="round" stroke-linejoin="round"/><path d="M8 10.6 L11.6 5.8" fill="none" stroke="rgb(158,206,106)" stroke-width="1.5" stroke-linecap="round" stroke-linejoin="round"/><path d="M8 10.6 a1.3 1.3 0 1 1 0.001 0 Z" fill="rgb(158,206,106)"/></g>
<text x="776.20" y="25" fill="rgb(158,206,106)" text-anchor="middle" dominant-baseline="central">4</text>
<text x="784.60" y="25" fill="rgb(158,206,106)" text-anchor="middle" dominant-baseline="central">2</text>
<text x="793.00" y="25" fill="rgb(158,206,106)" text-anchor="middle" dominant-baseline="central">%</text>
</svg>
